<svg xmlns="http://www.w3.org/2000/svg" width="16" height="16" viewBox="0 0 16 16" fill="none">
    <path d="M7.2 7.20005C8.04869 7.20005 8.86263 6.86291 9.46274 6.26279C10.0629 5.66267 10.4 4.84874 10.4 4.00005C10.4 3.15136 10.0629 2.33742 9.46274 1.73731C8.86263 1.13719 8.04869 0.800049 7.2 0.800049C6.35131 0.800049 5.53737 1.13719 4.93726 1.73731C4.33714 2.33742 4 3.15136 4 4.00005C4 4.84874 4.33714 5.66267 4.93726 6.26279C5.53737 6.86291 6.35131 7.20005 7.2 7.20005Z" stroke="white" stroke-linecap="round" stroke-linejoin="round"></path>
    <path d="M1.6001 13.6V12.8C1.5999 11.8552 1.83876 10.9257 2.29445 10.098C2.75013 9.27033 3.40782 8.57141 4.20628 8.0663C5.00475 7.56119 5.91804 7.26631 6.86113 7.20912C7.80422 7.15193 8.74644 7.33429 9.6001 7.73921M10.9081 10.732L11.7393 8.96961C11.7618 8.91923 11.7984 8.87644 11.8447 8.84642C11.8909 8.81639 11.9449 8.80042 12.0001 8.80042C12.0553 8.80042 12.1093 8.81639 12.1555 8.84642C12.2018 8.87644 12.2384 8.91923 12.2609 8.96961L13.0929 10.732L14.9513 11.0168C15.1897 11.0528 15.2841 11.36 15.1113 11.536L13.7673 12.9064L14.0841 14.8432C14.1249 15.092 13.8761 15.2816 13.6625 15.164L12.0001 14.2496L10.3377 15.164C10.1241 15.2816 9.8753 15.092 9.9161 14.844L10.2329 12.9064L8.8889 11.536C8.7161 11.36 8.8105 11.0528 9.0489 11.016L10.9081 10.732Z" stroke="white" stroke-linecap="round" stroke-linejoin="round"></path>
</svg>